inDegrees=yes
name=ik_S44_A01_T01
DataType=double
version=3
OpenSimVersion=4.3-2021-08-27-4bc7ad9
endheader
time	pelvis_tilt	pelvis_list	pelvis_rotation	pelvis_tx	pelvis_ty	pelvis_tz	hip_flexion_r	hip_adduction_r	hip_rotation_r	knee_angle_r	knee_angle_r_beta	ankle_angle_r	subtalar_angle_r	mtp_angle_r	hip_flexion_l	hip_adduction_l	hip_rotation_l	knee_angle_l	knee_angle_l_beta	ankle_angle_l	subtalar_angle_l	mtp_angle_l	lumbar_extension	lumbar_bending	lumbar_rotation	arm_flex_r	arm_add_r	arm_rot_r	elbow_flex_r	pro_sup_r	wrist_flex_r	wrist_dev_r	arm_flex_l	arm_add_l	arm_rot_l	elbow_flex_l	pro_sup_l	wrist_flex_l	wrist_dev_l
13.79999999999979	-0.9203004496061638	0.747092238968264	80.36609416873279	0	0.9399999999999999	0	-1.723934930560237	-9.82280497828858	-10.92053909625529	-2.982425077273259	-0.05205313729246467	0	0	0	1.592474331625885	-4.303179344750609	-11.8433810999815	-1.611553211163332	-0.02812690960588758	0	0	0	0	0	0	35.98277095349296	-35.98277095349296	4.685461095577677	80.54863328177979	85.3145391647685	0	0	35.98277095349296	-35.98277095349296	4.685461095577677	80.54863328177979	85.3145391647097	0	0
13.81999999999979	-0.8527817085847507	0.7374055171334311	80.35634636150986	0	0.9399999999999999	0	-2.913591838328617	-9.371078607715241	-10.28795071051936	-4.081145319383638	-0.07122942307560004	0	0	0	1.061282728290229	-4.459731255654118	-11.34882815709544	-2.241779048882406	-0.03912642550522489	0	0	0	0	0	0	35.98435077747321	-35.98435077747321	4.685571350833004	80.55019698667223	85.31442890951857	0	0	35.98435077747321	-35.98435077747321	4.685571350833004	80.55019698667223	85.31442890945982	0	0
13.83999999999979	-0.7310116888391459	0.6280251680943368	80.34315753371793	0	0.9399999999999999	0	-2.679621397393851	-9.237191097217092	-9.724044033931818	-3.706646723942386	-0.06469318954105596	0	0	0	0.6461111156162289	-4.654639560620589	-11.00723928985489	-2.903186981325538	-0.05067017162516577	0	0	0	0	0	0	35.98635919858056	-35.98635919858056	4.685711409697708	80.55218337151982	85.31428885066073	0	0	35.98635919858056	-35.98635919858056	4.685711409697708	80.55218337151982	85.31428885060204	0	0
13.85999999999979	-0.6348669099434544	0.6654584549604781	80.35592075338344	0	0.9399999999999999	0	-2.809852592755428	-9.068123158649156	-10.06009350176745	-4.227531157526291	-0.07378433792948083	0	0	0	0.2155750798209642	-4.803957715804585	-10.92215812722134	-3.33044550753151	-0.05812723966467846	0	0	0	0	0	0	35.98818068271712	-35.98818068271712	4.685838813084897	80.55399030121541	85.31416144727977	0	0	35.98818068271712	-35.98818068271712	4.685838813084897	80.55399030121541	85.3141614472211	0	0
13.87999999999979	-0.6015595879760174	0.8312813896575658	80.46210092446175	0	0.9399999999999999	0	-3.768462454735138	-8.887578760262285	-9.861801825857741	-5.278669690069527	-0.09213016621694187	0	0	0	-0.2263321930733359	-4.966734477388196	-10.79384064983557	-3.473500633436688	-0.06062402262357885	0	0	0	0	0	0	35.99047651181247	-35.99047651181247	4.685999271686638	80.55626603027675	85.31400098868589	0	0	35.99047651181247	-35.99047651181247	4.685999271686638	80.55626603027675	85.3140009886273	0	0
13.89999999999979	-0.6624167151565783	1.044231530111196	80.63407306470705	0	0.9399999999999999	0	-5.290321303704029	-8.701082925194131	-8.905485209511822	-6.929744062561072	-0.1209468502122186	0	0	0	-0.4908833938965527	-5.008030515614189	-10.56654742483829	-3.382269608934577	-0.05903174086604938	0	0	0	0	0	0	35.9921928605733	-35.9921928605733	4.686119219148802	80.55796720018196	85.31388104122964	0	0	35.9921928605733	-35.9921928605733	4.686119219148802	80.55796720018196	85.31388104117103	0	0
13.91999999999979	-0.6670551881211692	1.027614744354691	80.65556509706533	0	0.9399999999999999	0	-5.276554563174976	-8.643868076453224	-8.981380202280477	-7.032517283104898	-0.1227405812935867	0	0	0	-0.5773394539597254	-5.162065020587396	-10.3291558040034	-3.293250770570441	-0.05747806904029457	0	0	0	0	0	0	35.99309718433887	-35.99309718433887	4.686182411494998	80.55886343197065	85.31381784888653	0	0	35.99309718433887	-35.99309718433887	4.686182411494998	80.55886343197065	85.31381784882794	0	0
13.93999999999979	-0.7898127429672389	1.209184261070489	80.89290881825708	0	0.9399999999999999	0	-6.184863139493016	-8.459926107161621	-8.620564747923469	-7.943720605843557	-0.1386440794304888	0	0	0	-0.8396760801706412	-5.115071921048476	-9.983931876189185	-3.176978518807334	-0.05544873541832056	0	0	0	0	0	0	35.99519644525356	-35.99519644525356	4.686329088684665	80.56094369268534	85.31367117170404	0	0	35.99519644525356	-35.99519644525356	4.686329088684665	80.56094369268534	85.31367117164551	0	0
13.95999999999979	-0.9203727317072293	1.20660627240315	81.07452526449032	0	0.9399999999999999	0	-6.438726724237622	-8.457372226229115	-8.894397628512341	-8.05055772554738	-0.1405087389326678	0	0	0	-0.9697274762839668	-5.1169484216961	-9.830371121186809	-3.141366805262911	-0.05482719376469333	0	0	0	0	0	0	35.99593028484891	-35.99593028484891	4.686380006100647	80.56166580051138	85.3136202542906	0	0	35.99593028484891	-35.99593028484891	4.686380006100647	80.56166580051138	85.31362025423206	0	0
13.97999999999979	-0.9207705372185758	1.10176678833443	80.99288113028453	0	0.9399999999999999	0	-6.34390379153011	-8.435288421832652	-8.818491785979294	-8.080969881716189	-0.1410395311904442	0	0	0	-1.017232035163131	-5.243272111662593	-9.908742256118774	-3.171593448344348	-0.05535474820828956	0	0	0	0	0	0	35.99653204304481	-35.99653204304481	4.686421654070617	80.5622564399347	85.31357860632268	0	0	35.99653204304481	-35.99653204304481	4.686421654070617	80.5622564399347	85.31357860626414	0	0
13.99999999999979	-0.9112049710589442	1.062733750537629	80.92244772187698	0	0.9399999999999999	0	-6.633826953066185	-8.26421044103223	-9.208336482756808	-8.154005303360446	-0.1423142397687188	0	0	0	-1.099141668199035	-5.340235379424989	-9.873202485359949	-3.186322413488055	-0.05561181714545874	0	0	0	0	0	0	35.99750175837188	-35.99750175837188	4.68648939131258	80.56321712487437	85.31351086908404	0	0	35.99750175837188	-35.99750175837188	4.68648939131258	80.56321712487437	85.31351086902552	0	0
14.01999999999979	-0.914363049218023	1.002949019702554	80.76811676255937	0	0.9399999999999999	0	-6.650844008886878	-8.231367518606151	-9.103047144998772	-8.117001392302793	-0.1416683996846476	0	0	0	-1.171476942306337	-5.406280472489131	-9.962385893110071	-3.207886343707259	-0.05598817872745415	0	0	0	0	0	0	35.99813136881657	-35.99813136881657	4.686533168723389	80.56383798077681	85.31346709167543	0	0	35.99813136881657	-35.99813136881657	4.686533168723389	80.56383798077681	85.31346709161693	0	0
14.03999999999979	-0.9367125042057773	0.8902890614390619	80.64939072781787	0	0.9399999999999999	0	-6.606600127462297	-8.237922644195836	-8.861619499080295	-8.072347212720905	-0.1408890372261669	0	0	0	-1.077290482952843	-5.428410074491612	-10.07483918792303	-3.198767690165506	-0.05582902819980191	0	0	0	0	0	0	35.99876974889865	-35.99876974889865	4.68657712780549	80.56446137474916	85.31342313259543	0	0	35.99876974889865	-35.99876974889865	4.68657712780549	80.56446137474916	85.31342313253694	0	0
14.05999999999979	-0.9707351844426837	0.8441447027791399	80.68075437296827	0	0.9399999999999999	0	-6.648433482996184	-8.20798608026754	-8.768899659259384	-8.070968920897364	-0.1408649814957928	0	0	0	-1.099061555541485	-5.458857368873771	-10.03253456085807	-3.194540190061493	-0.05575524440385848	0	0	0	0	0	0	35.99899017731614	-35.99899017731614	4.686592300757271	80.56467654527528	85.31340795964439	0	0	35.99899017731614	-35.99899017731614	4.686592300757271	80.56467654527528	85.3134079595859	0	0
14.07999999999979	-0.9889935904760397	0.7484362487403735	80.78083744490573	0	0.9399999999999999	0	-6.692232587543972	-8.134722219777512	-8.747040384292994	-8.058370135033574	-0.1406450912007159	0	0	0	-1.01996591562752	-5.473352196381077	-9.957405541458423	-3.185235779188829	-0.05559285179917215	0	0	0	0	0	0	35.99924542121661	-35.99924542121661	4.686609881562576	80.56492586298273	85.31339037883996	0	0	35.99924542121661	-35.99924542121661	4.686609881562576	80.56492586298273	85.31339037878146	0	0
14.09999999999979	-0.970231490290839	0.5412852050651554	81.00551435254715	0	0.9399999999999999	0	-6.584060321396185	-7.97648193688236	-8.840607068887225	-8.093256264899534	-0.1412539690301552	0	0	0	-0.865202901626553	-5.621836674820359	-9.989803274776293	-3.124610336315013	-0.05453473821054432	0	0	0	0	0	0	36.00016927759881	-36.00016927759881	4.686674304917413	80.56583953704694	85.31332595548825	0	0	36.00016927759881	-36.00016927759881	4.686674304917413	80.56583953704694	85.31332595542979	0	0
